<svg id="Layer_1" data-name="Layer 1" xmlns="http://www.w3.org/2000/svg" viewBox="0 0 512 512"><defs><style>.cls-1{fill:#141f38;}</style></defs><title>beer-2-glyph</title><path class="cls-1" d="M417.68,215.58H384V148.21H60.63V444.63A67.37,67.37,0,0,0,128,512H316.63A67.37,67.37,0,0,0,384,444.63V404.21h33.68a47.21,47.21,0,0,0,47.16-47.16V262.74A47.21,47.21,0,0,0,417.68,215.58Zm20.21,141.47a20.23,20.23,0,0,1-20.21,20.21H384V242.53h33.68a20.23,20.23,0,0,1,20.21,20.21ZM390.71,121.26H49.3a43.08,43.08,0,0,1-2.15-13.47c0-22.32,16.8-40.42,37.53-40.42a36.06,36.06,0,0,1,26.19,11.5,58,58,0,0,1-1.17-11.5c0-29.76,22.41-53.89,50-53.89a48.2,48.2,0,0,1,35.73,16.19C206.73,11.77,225.76,0,247.34,0c32,0,58.37,25.92,62.07,59.33,9.18-11.56,22.79-18.91,38-18.91,27.64,0,50,24.13,50,53.89A56.56,56.56,0,0,1,390.71,121.26Z"/></svg>